<svg width="62" height="28" viewBox="0 0 62 28" fill="none" xmlns="http://www.w3.org/2000/svg">
<g filter="url(#filter0_i_2_698)">
<rect width="62" height="27.9" rx="13.95" fill="url(#paint0_linear_2_698)"/>
</g>
<path fill-rule="evenodd" clip-rule="evenodd" d="M14.4035 11.2715C13.829 11.7808 13.0731 12.0901 12.245 12.0901C11.2678 12.0901 10.3911 11.6594 9.79449 10.9776C9.55103 11.0945 9.27817 11.1601 8.99 11.1601C7.96276 11.1601 7.13 10.3273 7.13 9.30008C7.13 8.27283 7.96276 7.44008 8.99 7.44008C9.09276 7.44008 9.19357 7.44841 9.29179 7.46444C9.80915 6.35162 10.937 5.58008 12.245 5.58008C13.3064 5.58008 14.2492 6.08813 14.8434 6.87433C15.0049 6.8388 15.1728 6.82008 15.345 6.82008C16.6291 6.82008 17.67 7.86102 17.67 9.14508C17.67 10.4291 16.6291 11.4701 15.345 11.4701C15.0099 11.4701 14.6913 11.3992 14.4035 11.2715Z" fill="url(#paint1_linear_2_698)"/>
<path fill-rule="evenodd" clip-rule="evenodd" d="M30.5106 6.73309C30.2065 7.00272 29.8063 7.16644 29.3679 7.16644C28.8506 7.16644 28.3865 6.93845 28.0706 6.57747C27.9417 6.63939 27.7972 6.67409 27.6447 6.67409C27.1008 6.67409 26.66 6.23322 26.66 5.68938C26.66 5.14554 27.1008 4.70468 27.6447 4.70468C27.6991 4.70468 27.7524 4.70909 27.8045 4.71758C28.0783 4.12844 28.6754 3.71997 29.3679 3.71997C29.9299 3.71997 30.429 3.98894 30.7435 4.40517C30.8291 4.38636 30.9179 4.37644 31.0091 4.37644C31.6889 4.37644 32.24 4.92753 32.24 5.60732C32.24 6.28712 31.6889 6.83821 31.0091 6.83821C30.8317 6.83821 30.663 6.80066 30.5106 6.73309Z" fill="url(#paint2_linear_2_698)"/>
<path fill-rule="evenodd" clip-rule="evenodd" d="M29.2399 13.9871C28.7668 14.4066 28.1443 14.6612 27.4623 14.6612C26.6576 14.6612 25.9356 14.3066 25.4443 13.745C25.2438 13.8414 25.0191 13.8953 24.7818 13.8953C23.9358 13.8953 23.25 13.2095 23.25 12.3636C23.25 11.5176 23.9358 10.8318 24.7818 10.8318C24.8664 10.8318 24.9494 10.8387 25.0303 10.8519C25.4563 9.93543 26.3851 9.30005 27.4623 9.30005C28.3365 9.30005 29.1129 9.71845 29.6022 10.3659C29.7353 10.3367 29.8735 10.3212 30.0153 10.3212C31.0728 10.3212 31.93 11.1785 31.93 12.2359C31.93 13.2934 31.0728 14.1507 30.0153 14.1507C29.7393 14.1507 29.4769 14.0923 29.2399 13.9871Z" fill="url(#paint3_linear_2_698)"/>
<defs>
<filter id="filter0_i_2_698" x="0" y="0" width="62" height="33.8999" filterUnits="userSpaceOnUse" color-interpolation-filters="sRGB">
<feFlood flood-opacity="0" result="BackgroundImageFix"/>
<feBlend mode="normal" in="SourceGraphic" in2="BackgroundImageFix" result="shape"/>
<feColorMatrix in="SourceAlpha" type="matrix" values="0 0 0 0 0 0 0 0 0 0 0 0 0 0 0 0 0 0 127 0" result="hardAlpha"/>
<feMorphology radius="3" operator="erode" in="SourceAlpha" result="effect1_innerShadow_2_698"/>
<feOffset dy="6"/>
<feGaussianBlur stdDeviation="4"/>
<feComposite in2="hardAlpha" operator="arithmetic" k2="-1" k3="1"/>
<feColorMatrix type="matrix" values="0 0 0 0 0 0 0 0 0 0 0 0 0 0 0 0 0 0 0.25 0"/>
<feBlend mode="normal" in2="shape" result="effect1_innerShadow_2_698"/>
</filter>
<linearGradient id="paint0_linear_2_698" x1="31" y1="0" x2="31" y2="27.9" gradientUnits="userSpaceOnUse">
<stop stop-color="#66FFED"/>
<stop offset="1" stop-color="#FFEEB2"/>
</linearGradient>
<linearGradient id="paint1_linear_2_698" x1="12.4" y1="5.58008" x2="12.4" y2="12.0901" gradientUnits="userSpaceOnUse">
<stop stop-color="#FFF48F"/>
<stop offset="1" stop-color="#FFFEEA" stop-opacity="0"/>
</linearGradient>
<linearGradient id="paint2_linear_2_698" x1="29.45" y1="3.71997" x2="29.45" y2="7.16644" gradientUnits="userSpaceOnUse">
<stop stop-color="#FFF48F"/>
<stop offset="1" stop-color="#FFFEEA" stop-opacity="0"/>
</linearGradient>
<linearGradient id="paint3_linear_2_698" x1="27.59" y1="9.30005" x2="27.59" y2="14.6612" gradientUnits="userSpaceOnUse">
<stop stop-color="#FFF48F"/>
<stop offset="1" stop-color="#FFFEEA" stop-opacity="0"/>
</linearGradient>
</defs>
</svg>
