<svg width="63" height="28" viewBox="0 0 63 28" fill="none" xmlns="http://www.w3.org/2000/svg">
<g filter="url(#filter0_i_2_569)">
<rect width="62.2222" height="28" rx="14" fill="url(#paint0_linear_2_569)"/>
</g>
<path d="M35.3553 8.05345C35.5068 7.83636 35.8429 7.89561 35.911 8.15141L36.1519 9.05563C36.1796 9.15962 36.259 9.24192 36.362 9.27322L37.2573 9.54535C37.5106 9.62233 37.5581 9.96034 37.3359 10.1042L36.5504 10.6126C36.46 10.6711 36.4063 10.7721 36.4084 10.8798L36.4262 11.8153C36.4313 12.08 36.1245 12.2296 35.919 12.0627L35.1927 11.4728C35.1091 11.4049 34.9965 11.3851 34.8948 11.4203L34.0105 11.7263C33.7603 11.8129 33.5232 11.5674 33.6185 11.3204L33.9551 10.4473C33.9938 10.3469 33.9779 10.2336 33.913 10.1478L33.3486 9.40138C33.189 9.19023 33.3492 8.88884 33.6135 8.90309L34.5479 8.95346C34.6554 8.95926 34.7582 8.90909 34.8198 8.82083L35.3553 8.05345Z" fill="url(#paint1_linear_2_569)"/>
<path d="M28.2956 3.85442C28.3325 3.80151 28.4145 3.81595 28.4311 3.8783L28.4898 4.09868C28.4965 4.12403 28.5159 4.14408 28.541 4.15171L28.7592 4.21804C28.8209 4.2368 28.8325 4.31918 28.7784 4.35424L28.5869 4.47817C28.5649 4.49242 28.5518 4.51704 28.5523 4.54327L28.5566 4.77129C28.5579 4.8358 28.4831 4.87227 28.433 4.83159L28.256 4.6878C28.2356 4.67127 28.2082 4.66642 28.1834 4.67501L27.9679 4.74961C27.9069 4.77071 27.8491 4.71087 27.8723 4.65067L27.9544 4.43788C27.9638 4.4134 27.9599 4.38579 27.9441 4.36487L27.8066 4.18295C27.7676 4.13149 27.8067 4.05803 27.8711 4.0615L28.0988 4.07378C28.125 4.07519 28.1501 4.06297 28.1651 4.04145L28.2956 3.85442Z" fill="url(#paint2_linear_2_569)"/>
<path d="M44.3174 10.3134C44.3556 10.1576 44.5586 10.1176 44.653 10.2473L44.9867 10.7058C45.0251 10.7586 45.088 10.7877 45.1531 10.7829L45.7187 10.7411C45.8787 10.7293 45.9794 10.91 45.8853 11.0398L45.5523 11.499C45.514 11.5518 45.5057 11.6206 45.5304 11.681L45.745 12.206C45.8057 12.3545 45.6649 12.5062 45.5123 12.4567L44.9728 12.2819C44.9107 12.2618 44.8427 12.2752 44.7929 12.3174L44.3599 12.6836C44.2374 12.7873 44.0497 12.7003 44.0495 12.5399L44.049 11.9727C44.049 11.9075 44.0152 11.8469 43.9597 11.8126L43.4776 11.514C43.3412 11.4295 43.3659 11.2241 43.5184 11.1744L44.0577 10.9986C44.1197 10.9784 44.1669 10.9276 44.1824 10.8642L44.3174 10.3134Z" fill="url(#paint3_linear_2_569)"/>
<path d="M50.7141 6.6589C50.7355 6.57162 50.8492 6.54923 50.9021 6.62189L51.089 6.8787C51.1105 6.90824 51.1458 6.92456 51.1822 6.92187L51.499 6.89844C51.5886 6.89181 51.645 6.99302 51.5923 7.06576L51.4058 7.32291C51.3843 7.35248 51.3797 7.39104 51.3935 7.42486L51.5137 7.71889C51.5477 7.80208 51.4689 7.88701 51.3834 7.85932L51.0812 7.76143C51.0464 7.75017 51.0083 7.75767 50.9804 7.78127L50.7379 7.98642C50.6693 8.04445 50.5642 7.99574 50.5641 7.90588L50.5638 7.58824C50.5638 7.55171 50.5449 7.51778 50.5138 7.49855L50.2438 7.3313C50.1674 7.28399 50.1812 7.16895 50.2667 7.14111L50.5687 7.04269C50.6034 7.03136 50.6298 7.0029 50.6385 6.96741L50.7141 6.6589Z" fill="url(#paint4_linear_2_569)"/>
<path d="M41.1968 3.06821C41.3002 3.02394 41.4081 3.12075 41.3752 3.22827L41.2591 3.60833C41.2457 3.65205 41.2559 3.69956 41.286 3.73395L41.5477 4.03301C41.6218 4.11762 41.5631 4.25015 41.4506 4.25214L41.0533 4.25915C41.0076 4.25996 40.9656 4.28433 40.9421 4.32358L40.7386 4.66491C40.681 4.76147 40.5368 4.74657 40.5002 4.64027L40.3707 4.26454C40.3559 4.22133 40.3197 4.18888 40.2751 4.17874L39.8876 4.09063C39.778 4.06571 39.7476 3.92396 39.8374 3.85629L40.1547 3.61706C40.1912 3.58954 40.2109 3.54512 40.2067 3.4996L40.1708 3.10382C40.1606 2.99185 40.286 2.91915 40.3781 2.98362L40.7037 3.2115C40.7412 3.23771 40.7895 3.2427 40.8315 3.2247L41.1968 3.06821Z" fill="url(#paint5_linear_2_569)"/>
<defs>
<filter id="filter0_i_2_569" x="0" y="0" width="62.2222" height="34" filterUnits="userSpaceOnUse" color-interpolation-filters="sRGB">
<feFlood flood-opacity="0" result="BackgroundImageFix"/>
<feBlend mode="normal" in="SourceGraphic" in2="BackgroundImageFix" result="shape"/>
<feColorMatrix in="SourceAlpha" type="matrix" values="0 0 0 0 0 0 0 0 0 0 0 0 0 0 0 0 0 0 127 0" result="hardAlpha"/>
<feMorphology radius="3" operator="erode" in="SourceAlpha" result="effect1_innerShadow_2_569"/>
<feOffset dy="6"/>
<feGaussianBlur stdDeviation="4"/>
<feComposite in2="hardAlpha" operator="arithmetic" k2="-1" k3="1"/>
<feColorMatrix type="matrix" values="0 0 0 0 0 0 0 0 0 0 0 0 0 0 0 0 0 0 0.25 0"/>
<feBlend mode="normal" in2="shape" result="effect1_innerShadow_2_569"/>
</filter>
<linearGradient id="paint0_linear_2_569" x1="31.8889" y1="1.08889" x2="31.1111" y2="28" gradientUnits="userSpaceOnUse">
<stop stop-color="#2B4485"/>
<stop offset="1" stop-color="#AFCAFF"/>
</linearGradient>
<linearGradient id="paint1_linear_2_569" x1="35.7386" y1="7.50407" x2="34.8205" y2="12.7127" gradientUnits="userSpaceOnUse">
<stop stop-color="#ADDDFF"/>
<stop offset="1" stop-color="#EDF6FF" stop-opacity="0"/>
</linearGradient>
<linearGradient id="paint2_linear_2_569" x1="28.3891" y1="3.72052" x2="28.1653" y2="4.99" gradientUnits="userSpaceOnUse">
<stop stop-color="#ADDDFF"/>
<stop offset="1" stop-color="#EDF6FF" stop-opacity="0"/>
</linearGradient>
<linearGradient id="paint3_linear_2_569" x1="44.414" y1="9.91904" x2="45.0334" y2="13.0642" gradientUnits="userSpaceOnUse">
<stop stop-color="#ADDDFF"/>
<stop offset="1" stop-color="#EDF6FF" stop-opacity="0"/>
</linearGradient>
<linearGradient id="paint4_linear_2_569" x1="50.7683" y1="6.43803" x2="51.1151" y2="8.19955" gradientUnits="userSpaceOnUse">
<stop stop-color="#ADDDFF"/>
<stop offset="1" stop-color="#EDF6FF" stop-opacity="0"/>
</linearGradient>
<linearGradient id="paint5_linear_2_569" x1="41.4583" y1="2.95617" x2="39.9583" y2="4.62806" gradientUnits="userSpaceOnUse">
<stop stop-color="#ADDDFF"/>
<stop offset="1" stop-color="#EDF6FF" stop-opacity="0"/>
</linearGradient>
</defs>
</svg>
