<svg width="35" height="35" viewBox="0 0 35 35" fill="none" xmlns="http://www.w3.org/2000/svg">
<g filter="url(#filter0_d_2_699)">
<circle cx="19.19" cy="16.57" r="10.85" fill="url(#paint0_linear_2_699)"/>
<circle cx="19.19" cy="16.5701" r="8.99" fill="url(#paint1_linear_2_699)"/>
<circle cx="19.19" cy="16.57" r="10.85" fill="#FF9255"/>
<circle cx="19.19" cy="16.5701" r="8.99" fill="url(#paint2_linear_2_699)"/>
<mask id="mask0_2_699" style="mask-type:alpha" maskUnits="userSpaceOnUse" x="8" y="5" width="23" height="23">
<circle cx="19.19" cy="16.57" r="10.85" fill="url(#paint3_linear_2_699)"/>
</mask>
<g mask="url(#mask0_2_699)">
<path d="M21.515 17.508C27.343 10.688 33.14 10.533 35.31 11.308L38.875 14.718L35.775 29.443L13.3 36.418L0.745036 30.683L-0.649963 17.043C4.31004 20.0397 15.687 24.328 21.515 17.508Z" fill="url(#paint4_linear_2_699)"/>
<path d="M18.26 16.5647C5.48904 8.82004 1.72684 11.1745 -0.207209 12.4271L-2.8939 16.5647L3.5046 30.1843L26.9807 31.8119L37.8832 23.3472L36.1088 9.75131C31.9695 13.8069 26.3912 21.4956 18.26 16.5647Z" fill="url(#paint5_linear_2_699)"/>
</g>
</g>
<defs>
<filter id="filter0_d_2_699" x="0.340027" y="0.719971" width="33.7" height="33.7" filterUnits="userSpaceOnUse" color-interpolation-filters="sRGB">
<feFlood flood-opacity="0" result="BackgroundImageFix"/>
<feColorMatrix in="SourceAlpha" type="matrix" values="0 0 0 0 0 0 0 0 0 0 0 0 0 0 0 0 0 0 127 0" result="hardAlpha"/>
<feOffset dx="-2" dy="1"/>
<feGaussianBlur stdDeviation="3"/>
<feColorMatrix type="matrix" values="0 0 0 0 0 0 0 0 0 0 0 0 0 0 0 0 0 0 0.25 0"/>
<feBlend mode="normal" in2="BackgroundImageFix" result="effect1_dropShadow_2_699"/>
<feBlend mode="normal" in="SourceGraphic" in2="effect1_dropShadow_2_699" result="shape"/>
</filter>
<linearGradient id="paint0_linear_2_699" x1="19.19" y1="5.71997" x2="19.19" y2="27.42" gradientUnits="userSpaceOnUse">
<stop stop-color="#FFC123"/>
<stop offset="1" stop-color="#F8832E"/>
</linearGradient>
<linearGradient id="paint1_linear_2_699" x1="19.19" y1="7.58008" x2="19.19" y2="25.5601" gradientUnits="userSpaceOnUse">
<stop stop-color="#FFBF24"/>
<stop offset="1" stop-color="#F4924B"/>
</linearGradient>
<linearGradient id="paint2_linear_2_699" x1="19.19" y1="7.58008" x2="19.19" y2="25.5601" gradientUnits="userSpaceOnUse">
<stop stop-color="#FFBF24"/>
<stop offset="1" stop-color="#F4924B"/>
</linearGradient>
<linearGradient id="paint3_linear_2_699" x1="19.19" y1="5.71997" x2="19.19" y2="27.42" gradientUnits="userSpaceOnUse">
<stop stop-color="#FFC123"/>
<stop offset="1" stop-color="#F8832E"/>
</linearGradient>
<linearGradient id="paint4_linear_2_699" x1="19.1125" y1="10.99" x2="19.1125" y2="36.418" gradientUnits="userSpaceOnUse">
<stop stop-color="#FF9D55" stop-opacity="0.6"/>
<stop offset="1" stop-color="#FD8A37" stop-opacity="0"/>
</linearGradient>
<linearGradient id="paint5_linear_2_699" x1="15.4844" y1="8.39816" x2="21.3235" y2="33.1467" gradientUnits="userSpaceOnUse">
<stop stop-color="#FFBD3E" stop-opacity="0.49"/>
<stop offset="1" stop-color="white" stop-opacity="0"/>
</linearGradient>
</defs>
</svg>
