<svg width="24" height="24" viewBox="0 0 24 24" fill="none" xmlns="http://www.w3.org/2000/svg">
<path d="M7.016 17.0419C6.768 16.9999 6.512 16.9999 6 16.9999C4.626 16.9999 3.94 16.9999 3.34 16.7229C2.75941 16.4383 2.27813 15.9852 1.959 15.4229C1.645 14.8409 1.609 14.2369 1.535 13.0279C1.51304 12.6856 1.50137 12.3428 1.5 11.9999C1.5 11.6769 1.513 11.3289 1.535 10.9709C1.608 9.76289 1.645 9.15789 1.959 8.57689C2.27787 8.01469 2.75878 7.56165 3.339 7.27689C3.94 6.99989 4.627 6.99989 6 6.99989C6.512 6.99989 6.768 6.99989 7.016 6.95789C7.26129 6.91635 7.50046 6.84447 7.728 6.74389C7.958 6.64289 8.172 6.50189 8.599 6.21989L8.819 6.07589C11.36 4.39889 12.632 3.55989 13.7 3.92489C13.905 3.99489 14.103 4.09489 14.28 4.21989C15.115 4.80689 15.252 6.09889 15.374 8.57689" stroke="white" stroke-width="1.5"/>
<path d="M15.5 8.5V12C15.5 12.532 15.465 13.488 15.413 14.605C15.273 17.623 15.203 19.131 14.28 19.78C14.1015 19.9051 13.9062 20.0044 13.7 20.075C12.733 20.405 11.598 19.747 9.5 18.373C8.833 17.915 7.4 17 7 17" stroke="white" stroke-width="1.5"/>
<path d="M20 18C20 18 21.5 16.2 21.5 12C21.5 9.567 20.997 7.939 20.573 7M18 15C18 15 18.5 14.1 18.5 12C18.5 11.138 18.416 10.478 18.317 10" stroke="white" stroke-width="1.5" stroke-linecap="round"/>
<path d="M22 2L2 22" stroke="white" stroke-width="1.5" stroke-linecap="round"/>
</svg>
