<svg width="24" height="24" viewBox="0 0 24 24" fill="none" xmlns="http://www.w3.org/2000/svg">
<path fill-rule="evenodd" clip-rule="evenodd" d="M6.278 1.75593C5.135 1.01693 3.84 1.13393 2.861 1.80393C1.894 2.46393 1.25 3.64493 1.25 5.03293V18.9669C1.25 20.3549 1.894 21.5349 2.86 22.1969C3.84 22.8659 5.135 22.9829 6.278 22.2449L17.067 15.2769C18.217 14.5349 18.75 13.2339 18.75 11.9999C18.75 10.7659 18.217 9.46493 17.067 8.72293L6.277 1.75493L6.278 1.75593ZM2.75 5.03293C2.75 4.11193 3.173 3.40793 3.708 3.04193C4.23 2.68393 4.87 2.63193 5.464 3.01593L16.253 9.98293C16.89 10.3929 17.25 11.1629 17.25 11.9999C17.25 12.8359 16.89 13.6059 16.253 14.0169L5.464 20.9849C4.87 21.3679 4.23 21.3149 3.708 20.9579C3.173 20.5929 2.75 19.8879 2.75 18.9679V5.03293Z" fill="white"/>
<path d="M22.75 5C22.75 4.80109 22.671 4.61032 22.5303 4.46967C22.3897 4.32902 22.1989 4.25 22 4.25C21.8011 4.25 21.6103 4.32902 21.4697 4.46967C21.329 4.61032 21.25 4.80109 21.25 5V19C21.25 19.1989 21.329 19.3897 21.4697 19.5303C21.6103 19.671 21.8011 19.75 22 19.75C22.1989 19.75 22.3897 19.671 22.5303 19.5303C22.671 19.3897 22.75 19.1989 22.75 19V5Z" fill="white"/>
</svg>
