<svg width="24" height="24" viewBox="0 0 24 24" fill="none" xmlns="http://www.w3.org/2000/svg">
<path d="M2 6C2 4.114 2 3.172 2.586 2.586C3.172 2 4.114 2 6 2C7.886 2 8.828 2 9.414 2.586C10 3.172 10 4.114 10 6V18C10 19.886 10 20.828 9.414 21.414C8.828 22 7.886 22 6 22C4.114 22 3.172 22 2.586 21.414C2 20.828 2 19.886 2 18V6Z" stroke="white" stroke-width="1.5"/>
<path d="M14 6C14 4.114 14 3.172 14.586 2.586C15.172 2 16.114 2 18 2C19.886 2 20.828 2 21.414 2.586C22 3.172 22 4.114 22 6V18C22 19.886 22 20.828 21.414 21.414C20.828 22 19.886 22 18 22C16.114 22 15.172 22 14.586 21.414C14 20.828 14 19.886 14 18V6Z" stroke="white" stroke-width="1.5"/>
</svg>
