<svg width="24" height="24" viewBox="0 0 24 24" fill="none" xmlns="http://www.w3.org/2000/svg">
<path fill-rule="evenodd" clip-rule="evenodd" d="M17.722 22.2441C18.865 22.9831 20.16 22.8661 21.139 22.1961C22.106 21.5361 22.75 20.3551 22.75 18.9671L22.75 5.03307C22.75 3.64507 22.106 2.46507 21.14 1.80306C20.16 1.13406 18.865 1.01706 17.722 1.75506L6.933 8.72306C5.783 9.46506 5.25 10.7661 5.25 12.0001C5.25 13.2341 5.783 14.5351 6.933 15.2771L17.723 22.2451L17.722 22.2441ZM21.25 18.9671C21.25 19.8881 20.827 20.5921 20.292 20.9581C19.77 21.3161 19.13 21.3681 18.536 20.9841L7.747 14.0171C7.11 13.6071 6.75 12.8371 6.75 12.0001C6.75 11.1641 7.11 10.3941 7.747 9.98306L18.536 3.01506C19.13 2.63206 19.77 2.68506 20.292 3.04206C20.827 3.40706 21.25 4.11206 21.25 5.03206L21.25 18.9671Z" fill="white"/>
<path d="M1.25 19C1.25 19.1989 1.32902 19.3897 1.46967 19.5303C1.61032 19.671 1.80109 19.75 2 19.75C2.19891 19.75 2.38968 19.671 2.53033 19.5303C2.67098 19.3897 2.75 19.1989 2.75 19L2.75 5C2.75 4.80109 2.67098 4.61032 2.53033 4.46967C2.38968 4.32902 2.19891 4.25 2 4.25C1.80109 4.25 1.61032 4.32902 1.46967 4.46967C1.32902 4.61032 1.25 4.80109 1.25 5L1.25 19Z" fill="white"/>
</svg>
