<svg width="24" height="24" viewBox="0 0 24 24" fill="none" xmlns="http://www.w3.org/2000/svg">
<path d="M1.535 10.9709C1.608 9.76289 1.645 9.15789 1.959 8.57689C2.27787 8.01469 2.75878 7.56165 3.339 7.27689C3.94 6.99989 4.627 6.99989 6 6.99989C6.512 6.99989 6.768 6.99989 7.016 6.95789C7.26129 6.91635 7.50046 6.84447 7.728 6.74389C7.958 6.64289 8.172 6.50189 8.599 6.21989L8.819 6.07589C11.36 4.39889 12.632 3.55989 13.7 3.92489C13.905 3.99489 14.103 4.09489 14.28 4.21989C15.202 4.86789 15.273 6.37689 15.413 9.39389C15.4586 10.2619 15.4876 11.1307 15.5 11.9999C15.5 12.5319 15.465 13.4879 15.413 14.6049C15.273 17.6229 15.203 19.1309 14.28 19.7799C14.1015 19.905 13.9063 20.0044 13.7 20.0749C12.633 20.4389 11.361 19.6009 8.818 17.9239L8.6 17.7799C8.173 17.4979 7.96 17.3569 7.729 17.2549C7.50141 17.1546 7.26224 17.0831 7.017 17.0419C6.768 16.9999 6.512 16.9999 6 16.9999C4.626 16.9999 3.94 16.9999 3.34 16.7229C2.75941 16.4383 2.27813 15.9852 1.959 15.4229C1.645 14.8409 1.609 14.2369 1.535 13.0279C1.51304 12.6856 1.50137 12.3428 1.5 11.9999C1.5 11.6769 1.513 11.3289 1.535 10.9709Z" stroke="white" stroke-width="1.5"/>
<path d="M20 6C20 6 21.5 7.8 21.5 12C21.5 16.2 20 18 20 18" stroke="white" stroke-width="1.5" stroke-linecap="round"/>
<path d="M18 9C18 9 18.5 9.9 18.5 12C18.5 14.1 18 15 18 15" stroke="white" stroke-width="1.5" stroke-linecap="round"/>
</svg>
