<svg width="24" height="24" viewBox="0 0 24 24" fill="none" xmlns="http://www.w3.org/2000/svg">
<path d="M1.535 10.971C1.608 9.76301 1.645 9.15801 1.959 8.57701C2.27787 8.01481 2.75878 7.56178 3.339 7.27701C3.94 7.00001 4.627 7.00001 6 7.00001C6.512 7.00001 6.768 7.00001 7.016 6.95801C7.26129 6.91647 7.50046 6.84459 7.728 6.74401C7.958 6.64301 8.172 6.50201 8.599 6.22001L8.819 6.07601C11.36 4.39901 12.632 3.56001 13.7 3.92501C13.905 3.99501 14.103 4.09501 14.28 4.22001C15.202 4.86801 15.273 6.37701 15.413 9.39401C15.4586 10.262 15.4876 11.1309 15.5 12C15.5 12.532 15.465 13.488 15.413 14.605C15.273 17.623 15.203 19.131 14.28 19.78C14.1015 19.9052 13.9063 20.0045 13.7 20.075C12.633 20.439 11.361 19.601 8.818 17.924L8.6 17.78C8.173 17.498 7.96 17.357 7.729 17.255C7.50141 17.1548 7.26224 17.0832 7.017 17.042C6.768 17 6.512 17 6 17C4.626 17 3.94 17 3.34 16.723C2.75941 16.4384 2.27813 15.9854 1.959 15.423C1.645 14.841 1.609 14.237 1.535 13.028C1.51304 12.6858 1.50137 12.3429 1.5 12C1.5 11.677 1.513 11.329 1.535 10.971Z" stroke="white" stroke-width="1.5"/>
<path d="M18 9C18 9 18.5 9.9 18.5 12C18.5 14.1 18 15 18 15" stroke="white" stroke-width="1.5" stroke-linecap="round"/>
</svg>
