<svg width="24" height="24" viewBox="0 0 24 24" fill="none" xmlns="http://www.w3.org/2000/svg">
<path d="M5.035 10.971C5.108 9.76301 5.145 9.15801 5.459 8.57701C5.77787 8.01481 6.25878 7.56178 6.839 7.27701C7.44 7.00001 8.127 7.00001 9.5 7.00001C10.012 7.00001 10.268 7.00001 10.516 6.95801C10.761 6.91601 11.001 6.84501 11.228 6.74401C11.458 6.64301 11.672 6.50201 12.099 6.22001L12.319 6.07601C14.86 4.39901 16.132 3.56001 17.2 3.92501C17.405 3.99501 17.603 4.09501 17.78 4.22001C18.702 4.86801 18.772 6.37701 18.913 9.39401C18.9586 10.262 18.9876 11.1309 19 12C19 12.532 18.965 13.488 18.913 14.605C18.773 17.623 18.703 19.131 17.78 19.78C17.6015 19.9052 17.4063 20.0045 17.2 20.075C16.133 20.439 14.861 19.601 12.318 17.924L12.099 17.78C11.672 17.498 11.459 17.357 11.228 17.255C11.0004 17.1548 10.7612 17.0832 10.516 17.042C10.268 17 10.012 17 9.5 17C8.126 17 7.44 17 6.84 16.723C6.25941 16.4384 5.77813 15.9854 5.459 15.423C5.145 14.841 5.109 14.237 5.035 13.028C5.01304 12.6858 5.00137 12.3429 5 12C5 11.677 5.013 11.329 5.035 10.971Z" stroke="white" stroke-width="1.5"/>
</svg>
